<?xml version="1.0" encoding="utf-8"?>
<!-- Generator: Adobe Illustrator 18.0.0, SVG Export Plug-In . SVG Version: 6.00 Build 0)  -->
<!DOCTYPE svg PUBLIC "-//W3C//DTD SVG 1.1//EN" "http://www.w3.org/Graphics/SVG/1.1/DTD/svg11.dtd">
<svg version="1.1" id="Layer_1" xmlns="http://www.w3.org/2000/svg" xmlns:xlink="http://www.w3.org/1999/xlink" x="0px" y="0px"
	 viewBox="0 0 300 75" enable-background="new 0 0 300 75" xml:space="preserve">
<g>
	<g>
		<g>
			<path fill-rule="evenodd" clip-rule="evenodd" fill="#F9A11D" d="M211.8,17.3l0.6,1.3L213,20c0.3,0.8,0,1.5-0.7,1.5h-1.2H210
				c-0.7,0-1-0.7-0.6-1.5l0.6-1.3l0.6-1.4C210.8,16.5,211.4,16.5,211.8,17.3L211.8,17.3z"/>
			<path fill="#F9A11D" d="M227.1,52.1c1.1,2.7-0.5,5.6-3.4,5.6c-1.6,0-3-1-3.5-2.4L218,50h-13.8l-2.1,5.2c-0.6,1.4-1.9,2.4-3.5,2.4
				c-2.9,0-4.6-2.9-3.4-5.6l11.6-26.9h0c0.7-1.7,2.4-2.8,4.3-2.8c2,0,3.7,1.3,4.4,3L227.1,52.1L227.1,52.1z M215.2,43.5l-4.3-10.8
				l-4.2,10.8H215.2L215.2,43.5z"/>
		</g>
		<path fill="#F9A11D" d="M277.5,57h13.9l0,0c2,0,3.5-1.6,3.5-3.5c0-2-1.6-3.5-3.5-3.5l0,0h-10.1V25.8l0,0c0-2.1-1.7-3.8-3.8-3.8
			c-2.1,0-3.8,1.7-3.8,3.8v27.4C273.6,55.3,275.4,57,277.5,57L277.5,57L277.5,57z"/>
		<path fill="#F9A11D" d="M254.1,23.2c-0.3-0.1-0.6-0.3-0.9-0.4c-1-0.4-2.1-0.7-3.2-0.9c-1.1-0.2-2.1-0.3-3.1-0.3
			c-2.7,0-5.2,0.4-7.5,1.3c-2.3,0.9-4.3,2.1-5.9,3.7c-1.7,1.6-3,3.5-3.9,5.8c-0.9,2.2-1.4,4.8-1.4,7.6c0,2.8,0.5,5.3,1.4,7.6
			c0.9,2.2,2.2,4.2,3.9,5.8c1.7,1.6,3.7,2.8,5.9,3.7c2.3,0.9,4.8,1.3,7.5,1.3c1.6,0,3.2-0.2,4.7-0.6c1.3-0.4,2.6-0.9,3.8-1.6l0,0
			l0,0c0.4-0.2,0.8-0.5,1.1-0.9c1.4-1.7,1.1-4.1-0.6-5.5c-1.4-1.2-3.5-1.1-4.9,0l0,0c-0.3,0.2-0.6,0.4-1,0.6c-1.2,0.6-2.6,1-4.2,1
			c-1.4,0-2.7-0.3-3.9-0.8c-1.2-0.6-2.2-1.3-3.1-2.3c-0.9-1-1.6-2.2-2.1-3.5c-0.5-1.4-0.7-2.9-0.8-4.5c0-1.6,0.3-3.1,0.8-4.5
			c0.5-1.4,1.2-2.5,2.1-3.5c0.9-1,2-1.8,3.2-2.3c1.2-0.5,2.6-0.8,4-0.8c1.4,0,2.7,0.3,3.8,0.7c0.2,0.1,0.4,0.2,0.6,0.3
			c1.4,1,3.2,1,4.6-0.1c1.6-1.3,1.9-3.7,0.5-5.3C255.3,23.9,254.7,23.5,254.1,23.2L254.1,23.2z"/>
		<path fill-rule="evenodd" clip-rule="evenodd" fill="#F9A11D" d="M265.2,21.9c2.1,0,3.8,1.7,3.8,3.8v27.6c0,2.1-1.7,3.8-3.8,3.8
			c-2.1,0-3.8-1.7-3.8-3.8V25.8C261.3,23.7,263,21.9,265.2,21.9L265.2,21.9z"/>
		<g>
			<path fill="#F9A11D" d="M180.6,22.6c-2.1,0-3.8,1.7-3.8,3.8v27.4v0c0,2.1,1.7,3.8,3.8,3.8c2.1,0,3.8-1.7,3.8-3.8v0v-3.3v-6.6
				v-7.1v-7.1v-7.1H180.6z"/>
		</g>
		<path fill="#F9A11D" d="M197.3,22.6h-12.9v7.1l12.9,0c2,0,3.5-1.6,3.5-3.5S199.3,22.6,197.3,22.6z"/>
		<path fill="#F9A11D" d="M191.1,43.8L191.1,43.8L191.1,43.8c2,0,3.6-1.6,3.6-3.5s-1.6-3.5-3.5-3.5h-6.8v7.1H191.1z"/>
		<g>
			<path fill="#3D9FD9" d="M141.7,52.1c1.1,2.7-0.5,5.6-3.4,5.6c-1.6,0-3-1-3.5-2.4l-2.1-5.2h-13.8l-2.1,5.2
				c-0.6,1.4-1.9,2.4-3.5,2.4c-2.9,0-4.6-2.9-3.4-5.6l11.6-26.9h0c0.7-1.7,2.4-2.8,4.3-2.8c2,0,3.7,1.3,4.4,3L141.7,52.1L141.7,52.1
				z M129.8,43.5l-4.3-10.8l-4.2,10.8H129.8L129.8,43.5z"/>
		</g>
		<g>
			<g>
				<path fill="#3D9FD9" d="M93.6,22.6c-2.1,0-3.8,1.7-3.8,3.8v27.4v0c0,2.1,1.7,3.8,3.8,3.8c2.1,0,3.8-1.7,3.8-3.8v0v-3.3v-6.6
					v-7.1v-7.1v-7.1H93.6z"/>
			</g>
			<path fill="#3D9FD9" d="M110.3,22.6H97.4v7.1l12.9,0c2,0,3.5-1.6,3.5-3.5S112.3,22.6,110.3,22.6z"/>
			<path fill="#3D9FD9" d="M104.1,43.8L104.1,43.8L104.1,43.8c2,0,3.6-1.6,3.6-3.5s-1.6-3.5-3.5-3.5h-6.8v7.1H104.1z"/>
		</g>
		<g>
			<path fill="#3D9FD9" d="M168.2,22.7l-7.7,0h-12.7c-2,0-3.5,1.6-3.5,3.5c0,2,1.6,3.5,3.5,3.5l7.7,0h12.7c2,0,3.5-1.6,3.5-3.5
				C171.8,24.2,170.2,22.7,168.2,22.7z"/>
			<path fill="#3D9FD9" d="M168.2,50.6l-7.7,0h-12.7c-2,0-3.5,1.6-3.5,3.5c0,2,1.6,3.5,3.5,3.5l7.7,0h12.7c2,0,3.5-1.6,3.5-3.5
				C171.8,52.2,170.2,50.6,168.2,50.6z"/>
			<path fill="#3D9FD9" d="M165.4,24.3l-4.6,6.2l-16,21.5c-1.2,1.6-0.8,3.8,0.8,5c1.6,1.2,3.8,0.8,4.9-0.8l13-17.6l7.5-10.2
				c1.2-1.6,0.8-3.8-0.8-5C168.8,22.4,166.6,22.7,165.4,24.3z"/>
		</g>
	</g>
	<circle fill="#FFFFFF" cx="40" cy="37.5" r="35"/>
	<polyline fill="#FFFFFF" stroke="#1E4078" stroke-miterlimit="10" points="42.8,52.8 31.3,60.4 8.5,25.8 31.5,10.6 39,22 39,22 	
		"/>
	<polyline fill="#FFFFFF" stroke="#6F1410" stroke-miterlimit="10" points="39,22 50.4,14.4 50.5,14.5 73.3,49 50.3,64.2 42.8,52.8 
			"/>
	
		<rect x="13.8" y="15.9" transform="matrix(-0.5512 -0.8344 0.8344 -0.5512 17.966 69.0914)" fill="#00ADEE" width="27.5" height="27.5"/>
	
		<rect x="17.5" y="28.4" transform="matrix(0.8344 -0.5512 0.5512 0.8344 -14.3229 23.1248)" opacity="0.58" fill="#3D9FD9" width="27.5" height="13.9"/>
	
		<rect x="26.4" y="43.8" transform="matrix(0.8344 -0.5512 0.5512 0.8344 -22.5002 26.7423)" fill="#00ADEE" width="13.8" height="13.9"/>
	
		<rect x="14.9" y="19.7" transform="matrix(-0.8344 0.5512 -0.5512 -0.8344 58.4935 49.4412)" opacity="0.33" fill="#3D9FD9" width="13.8" height="27.5"/>
	<g>
		
			<rect x="40.5" y="31.3" transform="matrix(0.5512 0.8344 -0.8344 0.5512 61.9775 -25.0127)" fill="#FFC113" width="27.5" height="27.5"/>
		
			<rect x="36.7" y="32.5" transform="matrix(-0.8344 0.5512 -0.5512 -0.8344 114.3398 44.4893)" opacity="0.58" fill="#FFC113" width="27.5" height="13.9"/>
		
			<rect x="41.7" y="17" transform="matrix(-0.8344 0.5512 -0.5512 -0.8344 102.3018 17.2741)" fill="#FFC113" width="13.8" height="13.9"/>
		
			<rect x="53.1" y="27.5" transform="matrix(0.8344 -0.5512 0.5512 0.8344 -12.8348 39.9058)" opacity="0.33" fill="#FFC113" width="13.8" height="27.5"/>
	</g>
	<path fill="#3D9FD9" d="M23.7,48.9c-8.4-12.7-4.9-29.9,7.8-38.3L8.5,25.8L23.7,48.9z"/>
	<path opacity="0.3" fill="#E1E1E1" d="M58.1,25.9c8.4,12.7,4.9,29.9-7.8,38.3L73.3,49L58.1,25.9z"/>
	<path opacity="0.3" fill="#231F20" d="M27.4,29.6c4.2-2.8,8.9-4.2,13.6-4.5L39,22L27.4,29.6z"/>
	<path opacity="0.3" fill="#231F20" d="M27.4,29.6c4.2-2.8,8.6-4.7,12.7-5.9L39,22L27.4,29.6z"/>
	<polygon opacity="0.3" fill="#FAA81C" points="50.5,14.5 50.5,64.1 73.3,49 	"/>
	<polyline opacity="0.5" fill="none" stroke="#200000" stroke-width="0.5" stroke-miterlimit="10" points="54.4,45.2 42.8,52.8 
		35.2,41.2 46.6,33.6 39,22 27.4,29.6 	"/>
	<path opacity="0.5" fill="#F0585F" d="M54.3,45.2C50.1,48,47,51.7,44.9,56l-2.1-3.1L54.3,45.2z"/>
	<path opacity="0.5" fill="#7F1517" d="M54.3,45.2c-4.2,2.8-7.7,6-10.4,9.4l-1.2-1.8L54.3,45.2z"/>
	<path opacity="0.5" fill="#F0585F" d="M46.7,33.6c-4.2,2.8-7.4,6.5-9.5,10.8l-2.1-3.1L46.7,33.6z"/>
	<path opacity="0.5" fill="#7F1517" d="M46.7,33.6c-4.2,2.8-7.7,6-10.4,9.4l-1.2-1.8L46.7,33.6z"/>
	<linearGradient id="SVGID_1_" gradientUnits="userSpaceOnUse" x1="34.7267" y1="16.6109" x2="24.7618" y2="22.9213">
		<stop  offset="0" style="stop-color:#FFFFFF"/>
		<stop  offset="1" style="stop-color:#000000;stop-opacity:0.1"/>
	</linearGradient>
	<polygon opacity="0.5" fill="url(#SVGID_1_)" points="38.6,21.7 27.9,28.8 20.7,17.9 31.5,10.8 	"/>
	<linearGradient id="SVGID_2_" gradientUnits="userSpaceOnUse" x1="42.1453" y1="28.4025" x2="32.1804" y2="34.7129">
		<stop  offset="0" style="stop-color:#FFFFFF"/>
		<stop  offset="1" style="stop-color:#000000;stop-opacity:0.1"/>
	</linearGradient>
	<polygon opacity="0.41" fill="url(#SVGID_2_)" points="46,33.5 35.3,40.6 28.1,29.7 38.9,22.6 	"/>
	
		<line opacity="0.7" fill="none" stroke="#FFFFFF" stroke-width="0.5" stroke-miterlimit="10" stroke-dasharray="1.5,2" x1="46.7" y1="33.7" x2="54.3" y2="45.2"/>
	
		<line opacity="0.7" fill="none" stroke="#FFFFFF" stroke-width="0.5" stroke-miterlimit="10" stroke-dasharray="1.5,2" x1="27.5" y1="29.7" x2="35.1" y2="41.2"/>
	
		<line opacity="0.8" fill="none" stroke="#231F20" stroke-width="0.5" stroke-miterlimit="10" stroke-dasharray="1.5,2" x1="27.6" y1="29.7" x2="35.3" y2="41.3"/>
	
		<line opacity="0.8" fill="none" stroke="#231F20" stroke-width="0.5" stroke-miterlimit="10" stroke-dasharray="1.5,2" x1="46.8" y1="33.7" x2="54.5" y2="45.2"/>
</g>
</svg>
