<?xml version="1.0" encoding="utf-8"?>
<!-- Generator: Adobe Illustrator 18.0.0, SVG Export Plug-In . SVG Version: 6.00 Build 0)  -->
<!DOCTYPE svg PUBLIC "-//W3C//DTD SVG 1.1//EN" "http://www.w3.org/Graphics/SVG/1.1/DTD/svg11.dtd">
<svg version="1.1" id="Layer_1" xmlns="http://www.w3.org/2000/svg" xmlns:xlink="http://www.w3.org/1999/xlink" x="0px" y="0px"
	 viewBox="0 0 200 40" enable-background="new 0 0 200 40" xml:space="preserve">
<g>
	<path fill="#999999" d="M116.1,5.4h1.1h1.1c0.6,0,0.9-0.7,0.6-1.4l-0.5-1.2l-0.5-1.2c-0.3-0.7-0.9-0.7-1.2,0L116,2.8L115.5,4
		C115.2,4.7,115.5,5.4,116.1,5.4z"/>
	<path fill="#999999" d="M121.1,8.9c-0.6-1.6-2.2-2.8-4-2.8c-1.8,0-3.3,1.1-3.9,2.6h0l-10.6,24.6c-1,2.4,0.5,5.1,3.1,5.1
		c1.5,0,2.7-0.9,3.2-2.1l1.9-4.8h12.6l1.9,4.8c0.5,1.3,1.8,2.1,3.2,2.1c2.7,0,4.2-2.7,3.1-5.1L121.1,8.9z M113.1,25.5l3.9-9.9
		l3.9,9.9H113.1z"/>
	<path fill="#999999" d="M190.5,31.3h-9.3v-22c0-1.9-1.6-3.5-3.5-3.5c-1.9,0-3.5,1.6-3.5,3.5v25c0,1.9,1.6,3.5,3.5,3.5l0,0h12.7l0,0
		c1.8,0,3.2-1.4,3.2-3.2C193.8,32.8,192.3,31.3,190.5,31.3z"/>
	<path fill="#999999" d="M158.2,31.1c-1.3-1.1-3.2-1-4.5,0l0,0c-0.3,0.2-0.6,0.4-0.9,0.6c-1.1,0.6-2.4,0.9-3.8,0.9
		c-1.3,0-2.5-0.3-3.5-0.8c-1.1-0.5-2-1.2-2.8-2.1c-0.8-0.9-1.4-2-1.9-3.2c-0.4-1.2-0.7-2.6-0.7-4.1c0-1.5,0.2-2.9,0.7-4.1
		c0.4-1.2,1.1-2.3,1.9-3.2c0.8-0.9,1.8-1.6,2.9-2.1c1.1-0.5,2.3-0.8,3.7-0.8c1.3,0,2.5,0.2,3.5,0.7c0.2,0.1,0.4,0.2,0.5,0.3
		c1.2,0.9,3,0.9,4.2-0.1c1.5-1.2,1.7-3.4,0.5-4.8c-0.4-0.5-0.9-0.9-1.5-1.1c-0.3-0.1-0.5-0.2-0.8-0.3c-1-0.4-1.9-0.6-2.9-0.8
		c-1-0.2-1.9-0.2-2.8-0.2c-2.5,0-4.8,0.4-6.9,1.2c-2.1,0.8-3.9,1.9-5.4,3.4c-1.5,1.5-2.7,3.2-3.6,5.3c-0.8,2.1-1.3,4.3-1.3,6.9
		c0,2.6,0.4,4.9,1.3,6.9c0.8,2.1,2,3.8,3.6,5.3c1.5,1.5,3.3,2.6,5.4,3.4c2.1,0.8,4.4,1.2,6.9,1.2c1.5,0,2.9-0.2,4.3-0.6
		c1.2-0.3,2.4-0.8,3.4-1.5l0,0l0,0c0.4-0.2,0.7-0.5,1-0.8C159.9,34.5,159.7,32.3,158.2,31.1z"/>
	<path fill="#999999" d="M166.5,5.8c-1.9,0-3.5,1.6-3.5,3.5v25.2c0,1.9,1.6,3.5,3.5,3.5c1.9,0,3.5-1.6,3.5-3.5V9.3
		C170,7.4,168.4,5.8,166.5,5.8z"/>
	<path fill="#999999" d="M98.9,19.3h-6.2v-6.5l11.8,0c1.8,0,3.2-1.4,3.2-3.2s-1.4-3.2-3.2-3.2H92.7h-3.5c-1.9,0-3.5,1.6-3.5,3.5v25
		v0c0,1.9,1.6,3.5,3.5,3.5c1.9,0,3.5-1.6,3.5-3.5v0v-3.1v-6h6.2h0h0c1.8,0,3.2-1.4,3.2-3.2C102.2,20.8,100.7,19.3,98.9,19.3z"/>
	<path fill="#999999" d="M43.1,8.9c-0.6-1.6-2.2-2.8-4-2.8c-1.8,0-3.3,1.1-3.9,2.6h0L24.6,33.3c-1,2.4,0.5,5.1,3.1,5.1
		c1.5,0,2.7-0.9,3.2-2.1l1.9-4.8h12.6l1.9,4.8c0.5,1.3,1.8,2.1,3.2,2.1c2.7,0,4.2-2.7,3.1-5.1L43.1,8.9z M35.1,25.5l3.9-9.9l3.9,9.9
		H35.1z"/>
	<path fill="#999999" d="M19.4,19.3h-6.2v-6.5l11.8,0c1.8,0,3.2-1.4,3.2-3.2S26.8,6.4,25,6.4H13.2H9.7C7.8,6.4,6.2,8,6.2,9.9v25v0
		c0,1.9,1.6,3.5,3.5,3.5c1.9,0,3.5-1.6,3.5-3.5v0v-3.1v-6h6.2h0h0c1.8,0,3.2-1.4,3.2-3.2C22.7,20.8,21.2,19.3,19.4,19.3z"/>
	<path fill="#999999" d="M80.6,11.7c0.4-0.6,0.6-1.3,0.6-2c0,0,0,0,0,0c0-1.8-1.4-3.2-3.2-3.2l-7.1,0H59.3c-1.8,0-3.2,1.5-3.2,3.2
		c0,1.8,1.4,3.2,3.2,3.2l7.1,0h5.3l-0.5,0.7L56.6,33.3c-1.1,1.4-0.7,3.5,0.7,4.5c0.6,0.4,1.2,0.6,1.9,0.6c0.1,0,0.1,0,0.2,0l7.1,0
		H78c1.8,0,3.2-1.5,3.2-3.2c0-1.8-1.4-3.2-3.2-3.2l-7.1,0h-5.2l8.1-10.9L80.6,11.7z"/>
</g>
</svg>
